

Release info:

General
Format                                   : Matroska
Format version                           : Version 2
File size                                : 880 MiB
Duration                                 : 1h 44mn
Overall bit rate                         : 1 173 Kbps


Video
ID                                       : 3
Format                                   : AVC
Format/Info                              : Advanced Video Codec
Format profile                           : Main@L3.1
Format settings, CABAC                   : Yes
Format settings, ReFrames                : 4 frames
Muxing mode                              : Header stripping
Codec ID                                 : V_MPEG4/ISO/AVC
Duration                                 : 1h 44mn
Bit rate                                 : 724 Kbps
Width                                    : 1 280 pixels
Height                                   : 544 pixels
Display aspect ratio                     : 2.35:1
Frame rate mode                          : Constant
Frame rate                               : 23.976 fps
Color space                              : YUV
Chroma subsampling                       : 4:2:0
Bit depth                                : 8 bits
Scan type                                : Progressive
Bits/(Pixel*Frame)                       : 0.043
Stream size                              : 526 MiB (60%)
Language                                 : English
Default                                  : Yes
Forced                                   : No
Color primaries                          : BT.709
Transfer characteristics                 : BT.709
Matrix coefficients                      : BT.709

Audio #1
ID                                       : 1
Format                                   : AC-3
Format/Info                              : Audio Coding 3
Mode extension                           : CM (complete main)
Format settings, Endianness              : Big
Muxing mode                              : Header stripping
Codec ID                                 : A_AC3
Duration                                 : 1h 44mn
Bit rate mode                            : Constant
Bit rate                                 : 224 Kbps
Channel(s)                               : 6 channels
Channel positions                        : Front: L C R, Side: L R, LFE
Sampling rate                            : 48.0 KHz
Bit depth                                : 16 bits
Compression mode                         : Lossy
Stream size                              : 168 MiB (19%)
Language                                 : Hindi
Default                                  : No
Forced                                   : No

Audio #2
ID                                       : 2
Format                                   : AC-3
Format/Info                              : Audio Coding 3
Mode extension                           : CM (complete main)
Format settings, Endianness              : Big
Muxing mode                              : Header stripping
Codec ID                                 : A_AC3
Duration                                 : 1h 44mn
Bit rate mode                            : Constant
Bit rate                                 : 224 Kbps
Channel(s)                               : 6 channels
Channel positions                        : Front: L C R, Side: L R, LFE
Sampling rate                            : 48.0 KHz
Bit depth                                : 16 bits
Compression mode                         : Lossy
Stream size                              : 168 MiB (19%)
Language                                 : English
Default                                  : Yes
Forced                                   : No

Subtitles: English, Arabic, Portuguese, Swedish, Danish



Source:
credit to original movie ripper (Thanks)

IMDB Info:

A substance, designed to help the brain repair itself, gives rise to a super-intelligent chimp who leads an ape uprising.

Director: Rupert Wyatt
Writers: Rick Jaffa, Amanda Silver, 
Stars: James Franco, Andy Serkis and Freida Pinto

Genres: Action | Drama | Sci-Fi | Thriller
 
http://www.imdb.com/title/tt1318514/

Screen Shot:
